<?xml version="1.0" encoding="UTF-8"?>
<svg id="Layer_1" data-name="Layer 1" xmlns="http://www.w3.org/2000/svg" viewBox="0 0 210 150">
  <defs>
    <style>
      .cls-1 {
        fill: #7e6b89;
      }

      .cls-2 {
        fill: #fff;
      }

      .cls-3 {
        fill: #472c56;
      }
    </style>
  </defs>
  <rect class="cls-2" x=".08" y=".05" width="210" height="150"/>
  <g>
    <g>
      <path class="cls-3" d="M47.79,118.46c-.68-.35-1.21-.85-1.58-1.49-.37-.64-.56-1.37-.56-2.21v-4.45c0-.84.19-1.58.56-2.21.37-.64.9-1.13,1.58-1.48.68-.35,1.48-.52,2.38-.52s1.67.17,2.36.5c.68.34,1.21.81,1.58,1.42.37.61.56,1.32.56,2.12,0,.06-.02.11-.06.15s-.09.06-.15.06l-1.66.09c-.14,0-.22-.07-.22-.2,0-.71-.22-1.28-.66-1.71-.44-.43-1.02-.65-1.75-.65s-1.32.22-1.76.65c-.44.43-.67,1-.67,1.71v4.59c0,.7.22,1.26.67,1.69.44.43,1.03.65,1.76.65s1.32-.21,1.75-.64c.44-.43.66-.99.66-1.7,0-.13.07-.2.22-.2l1.66.07c.06,0,.11.02.15.05.04.04.06.08.06.13,0,.82-.19,1.53-.56,2.15s-.9,1.09-1.58,1.43c-.68.34-1.47.5-2.36.5s-1.69-.18-2.38-.53Z"/>
      <path class="cls-3" d="M56.15,118.78s-.06-.09-.06-.15v-1.53c0-.11.03-.19.09-.25l4.43-5.2c.06-.07.04-.11-.05-.11h-4.16c-.06,0-.11-.02-.15-.06s-.06-.09-.06-.15v-1.46c0-.06.02-.11.06-.15s.09-.06.15-.06h6.55c.06,0,.11.02.15.06s.06.09.06.15v1.53c0,.1-.04.18-.11.25l-4.52,5.2c-.05.07-.03.11.05.11h4.41c.06,0,.11.02.15.06.04.04.06.09.06.15v1.46c0,.06-.02.11-.06.15-.04.04-.09.06-.15.06h-6.7c-.06,0-.11-.02-.15-.06Z"/>
      <path class="cls-3" d="M72.72,114.22l-.02.56c0,.14-.07.22-.22.22h-5.63c-.06,0-.09.03-.09.09.04.4.09.67.16.81.29.86.99,1.3,2.11,1.31.82,0,1.46-.34,1.94-1.01.05-.07.11-.11.18-.11.05,0,.09.02.13.05l1.12.92c.11.08.13.18.05.29-.37.53-.87.94-1.48,1.22-.62.29-1.31.43-2.06.43-.94,0-1.73-.21-2.38-.63-.65-.42-1.13-1.01-1.43-1.76-.28-.65-.41-1.55-.41-2.7,0-.7.07-1.26.22-1.69.24-.84.69-1.5,1.36-1.99.67-.49,1.47-.73,2.4-.73,2.36,0,3.7,1.24,4,3.71.05.3.07.64.07,1.01ZM67.55,111.64c-.29.22-.5.53-.62.93-.07.2-.12.47-.14.79-.02.06,0,.09.07.09h3.65c.06,0,.09-.03.09-.09-.02-.3-.06-.53-.11-.68-.11-.43-.32-.77-.64-1.01-.32-.24-.72-.36-1.2-.36-.44,0-.81.11-1.11.33Z"/>
      <path class="cls-3" d="M76.07,118.28c-.67-.47-1.14-1.11-1.4-1.92-.19-.54-.29-1.26-.29-2.16s.1-1.57.29-2.12c.25-.79.72-1.42,1.39-1.88.68-.46,1.48-.69,2.4-.69s1.75.23,2.45.7c.7.47,1.16,1.06,1.39,1.76.06.19.1.38.13.58v.04c0,.12-.07.19-.2.22l-1.62.23h-.04c-.11,0-.18-.06-.22-.18,0-.06,0-.11-.02-.14-.02-.1-.05-.18-.07-.25-.11-.34-.32-.61-.65-.83-.32-.22-.71-.32-1.15-.32s-.84.12-1.16.35c-.32.23-.53.56-.64.96-.12.38-.18.92-.18,1.6s.05,1.19.16,1.6c.12.42.34.75.65,1,.31.25.7.37,1.17.37s.85-.12,1.18-.35c.33-.23.54-.55.64-.95.01-.02.02-.05.02-.09.01-.01.02-.03.02-.05.04-.14.12-.2.25-.18l1.62.25c.06.01.11.04.15.08.04.04.06.1.04.17-.04.19-.07.33-.09.41-.23.77-.69,1.38-1.39,1.83-.7.45-1.51.67-2.45.67s-1.72-.24-2.39-.71Z"/>
      <path class="cls-3" d="M90.93,110.37c.58.58.87,1.36.87,2.36v5.9c0,.06-.02.11-.06.15-.04.04-.09.06-.15.06h-1.66c-.06,0-.11-.02-.15-.06-.04-.04-.06-.09-.06-.15v-5.47c0-.55-.16-1-.47-1.34-.31-.34-.73-.51-1.24-.51s-.93.17-1.25.5c-.32.34-.48.78-.48,1.33v5.49c0,.06-.02.11-.06.15-.04.04-.09.06-.15.06h-1.66c-.06,0-.11-.02-.15-.06-.04-.04-.06-.09-.06-.15v-12.17c0-.06.02-.11.06-.15s.09-.06.15-.06h1.66c.06,0,.11.02.15.06s.06.09.06.15v3.98s.01.06.04.07c.02.01.04,0,.05-.04.49-.65,1.24-.97,2.23-.97s1.75.29,2.33.86Z"/>
      <path class="cls-3" d="M104.6,118.69l-2.38-5.18s-.06-.07-.11-.07h-2.16c-.06,0-.09.03-.09.09v5.11c0,.06-.02.11-.06.15-.04.04-.09.06-.15.06h-1.66c-.06,0-.11-.02-.15-.06-.04-.04-.06-.09-.06-.15v-12.17c0-.06.02-.11.06-.15s.09-.06.15-.06h4.95c.73,0,1.38.15,1.94.46.56.31,1,.74,1.31,1.3.31.56.47,1.2.47,1.92,0,.83-.21,1.53-.64,2.11-.43.58-1.02.99-1.77,1.22-.02,0-.04.01-.05.04-.01.02-.01.05,0,.07l2.54,5.24s.04.08.04.11c0,.1-.07.14-.2.14h-1.73c-.12,0-.2-.05-.25-.16ZM99.86,108.14v3.58c0,.06.03.09.09.09h2.7c.58,0,1.04-.17,1.39-.51.35-.34.53-.79.53-1.36s-.18-1.02-.53-1.37c-.35-.35-.82-.52-1.39-.52h-2.7c-.06,0-.09.03-.09.09Z"/>
      <path class="cls-3" d="M116.33,114.22l-.02.56c0,.14-.07.22-.22.22h-5.63c-.06,0-.09.03-.09.09.04.4.09.67.16.81.29.86.99,1.3,2.11,1.31.82,0,1.46-.34,1.94-1.01.05-.07.11-.11.18-.11.05,0,.09.02.13.05l1.12.92c.11.08.13.18.05.29-.37.53-.87.94-1.48,1.22-.62.29-1.31.43-2.06.43-.94,0-1.73-.21-2.38-.63-.65-.42-1.13-1.01-1.43-1.76-.28-.65-.41-1.55-.41-2.7,0-.7.07-1.26.22-1.69.24-.84.69-1.5,1.36-1.99.67-.49,1.47-.73,2.4-.73,2.36,0,3.7,1.24,4,3.71.05.3.07.64.07,1.01ZM111.16,111.64c-.29.22-.5.53-.62.93-.07.2-.12.47-.14.79-.02.06,0,.09.07.09h3.65c.06,0,.09-.03.09-.09-.02-.3-.06-.53-.11-.68-.11-.43-.32-.77-.64-1.01-.32-.24-.72-.36-1.2-.36-.44,0-.81.11-1.11.33Z"/>
      <path class="cls-3" d="M126.36,114.28c0,.85-.1,1.58-.31,2.2-.26.79-.69,1.41-1.27,1.85-.58.44-1.32.67-2.21.67s-1.54-.31-2.05-.92c-.02-.02-.05-.03-.07-.02-.02.01-.04.04-.04.07v3.91c0,.06-.02.11-.06.15-.04.04-.09.06-.15.06h-1.66c-.06,0-.11-.02-.15-.06s-.06-.09-.06-.15v-12.17c0-.06.02-.11.06-.15s.09-.06.15-.06h1.66c.06,0,.11.02.15.06.04.04.06.09.06.15v.54s.01.06.04.07c.02.01.05,0,.07-.04.53-.62,1.22-.94,2.07-.94s1.57.22,2.16.67,1.01,1.06,1.28,1.85c.22.61.32,1.36.32,2.25ZM124.24,114.24c0-.88-.14-1.57-.43-2.07-.34-.59-.85-.88-1.53-.88-.62,0-1.09.29-1.4.86-.28.47-.41,1.16-.41,2.09s.15,1.67.45,2.16c.31.53.76.79,1.35.79.64,0,1.12-.25,1.44-.76.36-.55.54-1.28.54-2.2Z"/>
      <path class="cls-3" d="M133.87,109.71s.09-.06.15-.06h1.64c.06,0,.11.02.15.06s.06.09.06.15v8.77c0,.06-.02.11-.06.15-.04.04-.09.06-.15.06h-1.64c-.06,0-.11-.02-.15-.06-.04-.04-.06-.09-.06-.15v-.58s-.01-.06-.04-.07c-.02-.01-.05,0-.07.04-.49.64-1.23.95-2.21.95-.91,0-1.68-.26-2.3-.79s-.93-1.28-.93-2.25v-6.07c0-.06.02-.11.06-.15s.09-.06.15-.06h1.66c.06,0,.11.02.15.06s.06.09.06.15v5.47c0,.56.15,1.01.44,1.35s.71.5,1.23.5.97-.17,1.3-.5c.32-.34.49-.79.49-1.35v-5.47c0-.06.02-.11.06-.15Z"/>
      <path class="cls-3" d="M146.18,114.22c0,.85-.11,1.6-.34,2.25-.26.79-.69,1.41-1.28,1.85-.59.44-1.31.67-2.16.67s-1.53-.32-2.07-.95c-.02-.04-.05-.05-.07-.04s-.04.04-.04.07v.56c0,.06-.02.11-.06.15-.04.04-.09.06-.15.06h-1.66c-.06,0-.11-.02-.15-.06-.04-.04-.06-.09-.06-.15v-12.17c0-.06.02-.11.06-.15s.09-.06.15-.06h1.66c.06,0,.11.02.15.06s.06.09.06.15v3.91s.01.06.04.07c.02.01.05,0,.07-.02.52-.61,1.2-.92,2.05-.92s1.62.22,2.21.67,1.01,1.06,1.29,1.85c.2.67.31,1.4.31,2.2ZM144.04,114.26c0-.94-.18-1.67-.54-2.2-.32-.5-.8-.76-1.44-.76-.59,0-1.04.26-1.35.79-.3.49-.45,1.21-.45,2.14s.14,1.62.41,2.09c.31.58.78.86,1.4.86.34,0,.64-.07.9-.22.26-.15.47-.36.63-.64.29-.5.43-1.19.43-2.07Z"/>
      <path class="cls-3" d="M148.24,118.78s-.06-.09-.06-.15v-12.17c0-.06.02-.11.06-.15s.09-.06.15-.06h1.66c.06,0,.11.02.15.06s.06.09.06.15v12.17c0,.06-.02.11-.06.15-.04.04-.09.06-.15.06h-1.66c-.06,0-.11-.02-.15-.06Z"/>
      <path class="cls-3" d="M152.75,108.03c-.24-.24-.36-.55-.36-.92s.12-.68.36-.92c.24-.24.55-.36.92-.36s.68.12.92.36c.24.24.36.55.36.92s-.12.68-.36.92c-.24.24-.55.36-.92.36s-.68-.12-.92-.36ZM152.65,118.78s-.06-.09-.06-.15v-8.78c0-.06.02-.11.06-.15.04-.04.09-.06.15-.06h1.66c.06,0,.11.02.15.06.04.04.06.09.06.15v8.78c0,.06-.02.11-.06.15-.04.04-.09.06-.15.06h-1.66c-.06,0-.11-.02-.15-.06Z"/>
      <path class="cls-3" d="M158.51,118.28c-.67-.47-1.14-1.11-1.4-1.92-.19-.54-.29-1.26-.29-2.16s.1-1.57.29-2.12c.25-.79.72-1.42,1.39-1.88.68-.46,1.48-.69,2.4-.69s1.75.23,2.45.7c.7.47,1.16,1.06,1.39,1.76.06.19.1.38.13.58v.04c0,.12-.07.19-.2.22l-1.62.23h-.04c-.11,0-.18-.06-.22-.18,0-.06,0-.11-.02-.14-.02-.1-.05-.18-.07-.25-.11-.34-.32-.61-.65-.83-.32-.22-.71-.32-1.15-.32s-.84.12-1.16.35c-.32.23-.53.56-.64.96-.12.38-.18.92-.18,1.6s.05,1.19.16,1.6c.12.42.34.75.65,1,.31.25.7.37,1.17.37s.85-.12,1.18-.35c.33-.23.54-.55.64-.95.01-.02.02-.05.02-.09.01-.01.02-.03.02-.05.04-.14.12-.2.25-.18l1.62.25c.06.01.11.04.15.08.04.04.06.1.04.17-.04.19-.07.33-.09.41-.23.77-.69,1.38-1.39,1.83-.7.45-1.51.67-2.45.67s-1.72-.24-2.39-.71Z"/>
    </g>
    <rect class="cls-3" x="16.69" y="15.86" width="176.77" height="1.42"/>
    <rect class="cls-3" x="16.69" y="132.82" width="176.77" height="1.42"/>
    <g>
      <g>
        <path class="cls-3" d="M138.72,73.14l-3.15-7.28c-.04-.08-.1-.12-.17-.12h-1.21c-.1,0-.14.05-.14.14v7.14c0,.13-.04.24-.11.32s-.18.11-.32.11h-4.53c-.13,0-.24-.04-.32-.11-.08-.08-.12-.18-.12-.32v-19.21c0-.13.04-.24.12-.32s.18-.11.32-.11h8.69c1.3,0,2.44.27,3.43.8.98.54,1.75,1.29,2.29,2.25.54.97.82,2.08.82,3.34s-.31,2.37-.93,3.31c-.62.95-1.48,1.64-2.57,2.08-.1.04-.12.11-.09.2l3.64,7.57c.04.12.06.18.06.2,0,.1-.04.17-.12.23s-.17.09-.29.09h-4.82c-.25,0-.41-.1-.49-.32ZM134.04,58.14v3.36c0,.1.05.14.14.14h2.7c.61,0,1.11-.17,1.49-.5.38-.33.57-.77.57-1.31s-.19-1-.57-1.33c-.38-.33-.88-.5-1.49-.5h-2.7c-.1,0-.14.05-.14.14Z"/>
        <path class="cls-3" d="M154.15,73.34c-.08-.08-.12-.18-.12-.32v-19.21c0-.13.04-.24.12-.32s.18-.11.32-.11h4.53c.13,0,.24.04.32.11.08.08.11.18.11.32v19.21c0,.13-.04.24-.11.32s-.18.11-.32.11h-4.53c-.13,0-.24-.04-.32-.11Z"/>
      </g>
      <path class="cls-3" d="M65.15,57.88c-.08.08-.18.12-.32.12h-8.58c-.1,0-.14.05-.14.14v2.7c0,.1.05.14.14.14h5.31c.13,0,.24.04.32.11.08.08.12.18.12.32v3.73c0,.13-.04.24-.12.32-.08.08-.18.12-.32.12h-5.31c-.1,0-.14.05-.14.14v2.98c0,.1.05.14.14.14h8.58c.13,0,.24.04.32.11.08.08.12.18.12.32v3.76c0,.13-.04.24-.12.32s-.18.11-.32.11h-13.68c-.13,0-.24-.04-.32-.11-.08-.08-.12-.18-.12-.32v-19.21c0-.13.04-.24.12-.32s.18-.11.32-.11h13.68c.13,0,.24.04.32.11.08.08.12.18.12.32v3.76c0,.13-.04.24-.12.32Z"/>
      <g>
        <g>
          <path class="cls-1" d="M97.16,63.32l21.63,6.04v22.66c0,.37-.11.66-.32.88-.21.21-.51.32-.88.32h-12.61c-.37,0-.66-.11-.88-.32-.21-.21-.32-.51-.32-.88v-19.56c0-.27-.13-.4-.4-.4h-12.45c-.27,0-.4.13-.4.4v19.56c0,.37-.11.66-.32.88-.21.21-.51.32-.88.32h-12.61c-.37,0-.67-.11-.88-.32-.21-.21-.32-.51-.32-.88v-22.66l21.63-6.04Z"/>
          <path class="cls-3" d="M117.6,93.71h-12.62c-.5,0-.92-.16-1.23-.46-.31-.31-.47-.72-.47-1.23v-19.46h-12.25s0,19.46,0,19.46c0,.51-.16.92-.47,1.23-.31.31-.73.47-1.23.47h-12.61c-.51,0-.92-.16-1.23-.46-.31-.31-.47-.73-.47-1.23v-23.04l22.13-6.17.13.04,22,6.14v23.04c0,.51-.16.92-.46,1.23-.31.31-.73.47-1.23.47ZM90.94,71.56h12.45c.55,0,.9.35.9.9v19.56c0,.35.13.48.17.53.12.12.29.17.52.17h12.62c.24,0,.41-.06.52-.17s.17-.29.17-.52v-22.28l-21.13-5.9-21.13,5.9v22.28c0,.24.06.41.17.53s.29.17.52.17h12.61c.24,0,.41-.06.52-.17.12-.12.17-.29.17-.52v-19.56c0-.55.35-.9.9-.9Z"/>
        </g>
        <g>
          <path class="cls-3" d="M118.48,36.78c-.21-.21-.51-.32-.88-.32h-12.61c-.37,0-.67.11-.88.32-.21.21-.32.51-.32.88v20.28c0,.27-.13.4-.4.4h-12.45c-.27,0-.4-.13-.4-.4v-20.28c0-.37-.11-.67-.32-.88-.21-.21-.51-.32-.88-.32h-12.61c-.37,0-.67.11-.88.32-.21.21-.32.51-.32.88v31.7l21.63-6.04,21.63,6.04v-31.7c0-.37-.11-.67-.32-.88Z"/>
          <path class="cls-3" d="M119.3,70.01l-22.13-6.17-22.13,6.17v-32.35c0-.51.16-.92.47-1.23.31-.31.72-.46,1.23-.46h12.61c.51,0,.92.16,1.23.47.31.31.47.72.47,1.23v20.17h12.25s0-20.17,0-20.17c0-.51.16-.93.47-1.23.31-.31.72-.46,1.23-.46h12.62c.51,0,.92.16,1.23.46h0c.31.31.47.72.47,1.23v32.35ZM97.16,62.8l.13.04,21,5.86v-31.04c0-.24-.06-.41-.17-.52h0c-.12-.12-.29-.17-.52-.17h-12.62c-.24,0-.41.06-.52.17-.04.04-.17.17-.17.53v20.28c0,.54-.36.9-.9.9h-12.45c-.55,0-.9-.35-.9-.9v-20.28c0-.24-.06-.41-.17-.52s-.29-.17-.52-.17h-12.61c-.24,0-.41.06-.52.17s-.17.29-.17.53v31.04l21.13-5.9Z"/>
        </g>
      </g>
    </g>
  </g>
</svg>