<?xml version="1.0" encoding="UTF-8"?>
<svg id="Layer_1" data-name="Layer 1" xmlns="http://www.w3.org/2000/svg" viewBox="0 0 210 150">
  <defs>
    <style>
      .cls-1 {
        fill: #7e6b89;
      }

      .cls-2 {
        fill: #fff;
      }

      .cls-3 {
        fill: #472c56;
      }
    </style>
  </defs>
  <rect class="cls-2" x=".07" y=".06" width="210" height="150"/>
  <g>
    <g>
      <path class="cls-3" d="M45.67,118.48c-.68-.35-1.21-.85-1.58-1.49-.37-.64-.56-1.37-.56-2.21v-4.45c0-.84.19-1.58.56-2.21.37-.64.9-1.13,1.58-1.48.68-.35,1.48-.52,2.38-.52s1.67.17,2.36.5c.68.34,1.21.81,1.58,1.42.37.61.56,1.32.56,2.12,0,.06-.02.11-.06.15s-.09.06-.15.06l-1.66.09c-.14,0-.22-.07-.22-.2,0-.71-.22-1.28-.66-1.71-.44-.43-1.02-.65-1.75-.65s-1.32.22-1.76.65c-.44.43-.67,1-.67,1.71v4.59c0,.7.22,1.26.67,1.69.44.43,1.03.65,1.76.65s1.32-.21,1.75-.64c.44-.43.66-.99.66-1.7,0-.13.07-.2.22-.2l1.66.07c.06,0,.11.02.15.05.04.04.06.08.06.13,0,.82-.19,1.53-.56,2.15s-.9,1.09-1.58,1.43c-.68.34-1.47.5-2.36.5s-1.69-.18-2.38-.53ZM45.48,103.01c0-.1.07-.14.2-.14h1.28c.11,0,.19.05.25.14l.85,1.22s.05.04.07.04.04-.01.05-.04l.85-1.22c.06-.1.14-.14.25-.14h1.26c.12,0,.18.04.18.13,0,.04-.02.08-.05.14l-1.37,1.89c-.06.08-.14.13-.25.13h-1.89c-.11,0-.19-.04-.25-.13l-1.37-1.89c-.04-.06-.05-.1-.05-.13Z"/>
      <path class="cls-3" d="M62.39,114.24l-.02.56c0,.14-.07.22-.22.22h-5.63c-.06,0-.09.03-.09.09.04.4.09.67.16.81.29.86.99,1.3,2.11,1.31.82,0,1.46-.34,1.94-1.01.05-.07.11-.11.18-.11.05,0,.09.02.13.05l1.12.92c.11.08.13.18.05.29-.37.53-.87.94-1.48,1.22-.62.29-1.31.43-2.06.43-.94,0-1.73-.21-2.38-.63-.65-.42-1.13-1.01-1.43-1.76-.28-.65-.41-1.55-.41-2.7,0-.7.07-1.26.22-1.69.24-.84.69-1.5,1.36-1.99.67-.49,1.47-.73,2.4-.73,2.36,0,3.7,1.24,4,3.71.05.3.07.64.07,1.01ZM57.21,111.66c-.29.22-.5.53-.62.93-.07.2-.12.47-.14.79-.02.06,0,.09.07.09h3.65c.06,0,.09-.03.09-.09-.02-.3-.06-.53-.11-.68-.11-.43-.32-.77-.64-1.01-.32-.24-.72-.36-1.2-.36-.44,0-.81.11-1.11.33Z"/>
      <path class="cls-3" d="M65.58,118.64c-.57-.22-1.01-.53-1.32-.92-.31-.39-.47-.83-.47-1.31v-.16c0-.06.02-.11.06-.15.04-.04.09-.06.15-.06h1.58c.06,0,.11.02.15.06s.06.09.06.15v.04c0,.3.16.56.49.78.33.22.75.33,1.25.33s.87-.1,1.17-.3c.3-.2.45-.45.45-.75,0-.28-.12-.48-.37-.62s-.64-.29-1.2-.44l-.68-.22c-.61-.18-1.13-.37-1.55-.58-.42-.2-.77-.48-1.06-.84-.29-.35-.43-.81-.43-1.36,0-.84.33-1.51.99-2.01s1.53-.75,2.61-.75c.73,0,1.37.12,1.93.35s.98.56,1.28.97c.3.41.45.89.45,1.41,0,.06-.02.11-.06.15s-.09.06-.15.06h-1.53c-.06,0-.11-.02-.15-.06s-.06-.09-.06-.15c0-.31-.15-.57-.46-.78-.31-.21-.72-.32-1.25-.32-.47,0-.85.09-1.14.26-.29.17-.44.42-.44.73,0,.29.14.51.42.66.28.15.75.32,1.41.5l.4.11c.64.19,1.17.39,1.6.58.43.2.8.47,1.1.83.3.35.45.81.45,1.38,0,.85-.34,1.52-1.01,2.01s-1.57.73-2.68.73c-.76,0-1.42-.11-1.99-.33Z"/>
      <path class="cls-3" d="M73.09,118.8s-.06-.09-.06-.15v-12.17c0-.06.02-.11.06-.15s.09-.06.15-.06h1.66c.06,0,.11.02.15.06s.06.09.06.15v6.5s.01.06.04.07c.02.01.05,0,.07-.04l2.92-3.22c.08-.08.17-.13.27-.13h1.91c.12,0,.18.04.18.13,0,.04-.02.08-.05.14l-2.29,2.74s-.04.08-.02.13l2.7,5.81s.04.08.04.11c0,.1-.07.14-.2.14h-1.75c-.12,0-.2-.05-.25-.16l-1.96-4.57s-.03-.04-.06-.04c-.03,0-.05,0-.06.03l-1.44,1.66s-.04.09-.04.13v2.75c0,.06-.02.11-.06.15-.04.04-.09.06-.15.06h-1.66c-.06,0-.11-.02-.15-.06Z"/>
      <path class="cls-3" d="M87.62,109.92c.58.26,1.02.63,1.33,1.09.31.46.47.99.47,1.58v6.07c0,.06-.02.11-.06.15-.04.04-.09.06-.15.06h-1.66c-.06,0-.11-.02-.15-.06-.04-.04-.06-.09-.06-.15v-.58s-.01-.06-.04-.06c-.02,0-.05,0-.07.03-.59.65-1.44.97-2.56.97-.9,0-1.64-.23-2.22-.68s-.87-1.13-.87-2.03.33-1.67.98-2.19c.65-.52,1.58-.78,2.76-.78h1.93c.06,0,.09-.03.09-.09v-.43c0-.47-.14-.83-.41-1.09-.28-.26-.69-.39-1.24-.39-.46,0-.83.08-1.11.24-.28.16-.46.39-.53.67-.04.14-.12.2-.25.18l-1.75-.22c-.06-.01-.11-.03-.15-.06-.04-.03-.06-.07-.04-.12.1-.73.49-1.33,1.18-1.8.69-.47,1.56-.7,2.6-.7.76,0,1.42.13,2,.4ZM86.7,116.88c.42-.31.63-.71.63-1.19v-.85c0-.06-.03-.09-.09-.09h-1.51c-.64,0-1.14.12-1.5.36-.37.24-.55.58-.55,1.03,0,.38.14.68.42.89.28.21.64.32,1.09.32.59,0,1.09-.16,1.51-.47ZM84.69,108.44s-.02-.11.02-.18l.99-1.85c.05-.1.14-.14.27-.14h1.42c.08,0,.14.03.17.08.03.05.02.12-.03.19l-1.24,1.84c-.06.1-.14.14-.25.14h-1.19c-.08,0-.14-.02-.16-.07Z"/>
      <path class="cls-3" d="M100.4,109.79c.1.05.13.14.11.27l-.31,1.62c-.01.14-.1.19-.25.13-.18-.06-.39-.09-.63-.09-.16,0-.28,0-.36.02-.5.02-.92.2-1.26.53s-.5.76-.5,1.29v5.09c0,.06-.02.11-.06.15-.04.04-.09.06-.15.06h-1.66c-.06,0-.11-.02-.15-.06-.04-.04-.06-.09-.06-.15v-8.77c0-.06.02-.11.06-.15s.09-.06.15-.06h1.66c.06,0,.11.02.15.06s.06.09.06.15v.81s0,.08.03.08c.02,0,.04,0,.06-.04.5-.78,1.21-1.17,2.11-1.17.38,0,.72.08,1.01.23Z"/>
      <path class="cls-3" d="M109.53,114.24l-.02.56c0,.14-.07.22-.22.22h-5.63c-.06,0-.09.03-.09.09.04.4.09.67.16.81.29.86.99,1.3,2.11,1.31.82,0,1.46-.34,1.94-1.01.05-.07.11-.11.18-.11.05,0,.09.02.13.05l1.12.92c.11.08.13.18.05.29-.37.53-.87.94-1.48,1.22-.62.29-1.31.43-2.06.43-.94,0-1.73-.21-2.38-.63-.65-.42-1.13-1.01-1.43-1.76-.28-.65-.41-1.55-.41-2.7,0-.7.07-1.26.22-1.69.24-.84.69-1.5,1.36-1.99.67-.49,1.47-.73,2.4-.73,2.36,0,3.7,1.24,4,3.71.05.3.07.64.07,1.01ZM104.35,111.66c-.29.22-.5.53-.62.93-.07.2-.12.47-.14.79-.02.06,0,.09.07.09h3.65c.06,0,.09-.03.09-.09-.02-.3-.06-.53-.11-.68-.11-.43-.32-.77-.64-1.01-.32-.24-.72-.36-1.2-.36-.44,0-.81.11-1.11.33Z"/>
      <path class="cls-3" d="M119.55,114.29c0,.85-.1,1.58-.31,2.2-.26.79-.69,1.41-1.27,1.85-.58.44-1.32.67-2.21.67s-1.54-.31-2.05-.92c-.02-.02-.05-.03-.07-.02-.02.01-.04.04-.04.07v3.91c0,.06-.02.11-.06.15-.04.04-.09.06-.15.06h-1.66c-.06,0-.11-.02-.15-.06s-.06-.09-.06-.15v-12.17c0-.06.02-.11.06-.15s.09-.06.15-.06h1.66c.06,0,.11.02.15.06.04.04.06.09.06.15v.54s.01.06.04.07c.02.01.05,0,.07-.04.53-.62,1.22-.94,2.07-.94s1.57.22,2.16.67,1.01,1.06,1.28,1.85c.22.61.32,1.36.32,2.25ZM117.43,114.26c0-.88-.14-1.57-.43-2.07-.34-.59-.85-.88-1.53-.88-.62,0-1.09.29-1.4.86-.28.47-.41,1.16-.41,2.09s.15,1.67.45,2.16c.31.53.76.79,1.35.79.64,0,1.12-.25,1.44-.76.36-.55.54-1.28.54-2.2Z"/>
      <path class="cls-3" d="M127.07,109.73s.09-.06.15-.06h1.64c.06,0,.11.02.15.06s.06.09.06.15v8.77c0,.06-.02.11-.06.15-.04.04-.09.06-.15.06h-1.64c-.06,0-.11-.02-.15-.06-.04-.04-.06-.09-.06-.15v-.58s-.01-.06-.04-.07c-.02-.01-.05,0-.07.04-.49.64-1.23.95-2.21.95-.91,0-1.68-.26-2.3-.79s-.93-1.28-.93-2.25v-6.07c0-.06.02-.11.06-.15s.09-.06.15-.06h1.66c.06,0,.11.02.15.06s.06.09.06.15v5.47c0,.56.15,1.01.44,1.35s.71.5,1.23.5.97-.17,1.3-.5c.32-.34.49-.79.49-1.35v-5.47c0-.06.02-.11.06-.15Z"/>
      <path class="cls-3" d="M139.37,114.24c0,.85-.11,1.6-.34,2.25-.26.79-.69,1.41-1.28,1.85-.59.44-1.31.67-2.16.67s-1.53-.32-2.07-.95c-.02-.04-.05-.05-.07-.04s-.04.04-.04.07v.56c0,.06-.02.11-.06.15-.04.04-.09.06-.15.06h-1.66c-.06,0-.11-.02-.15-.06-.04-.04-.06-.09-.06-.15v-12.17c0-.06.02-.11.06-.15s.09-.06.15-.06h1.66c.06,0,.11.02.15.06s.06.09.06.15v3.91s.01.06.04.07c.02.01.05,0,.07-.02.52-.61,1.2-.92,2.05-.92s1.62.22,2.21.67,1.01,1.06,1.29,1.85c.2.67.31,1.4.31,2.2ZM137.23,114.27c0-.94-.18-1.67-.54-2.2-.32-.5-.8-.76-1.44-.76-.59,0-1.04.26-1.35.79-.3.49-.45,1.21-.45,2.14s.14,1.62.41,2.09c.31.58.78.86,1.4.86.34,0,.64-.07.9-.22.26-.15.47-.36.63-.64.29-.5.43-1.19.43-2.07Z"/>
      <path class="cls-3" d="M141.43,118.8s-.06-.09-.06-.15v-12.17c0-.06.02-.11.06-.15s.09-.06.15-.06h1.66c.06,0,.11.02.15.06s.06.09.06.15v12.17c0,.06-.02.11-.06.15-.04.04-.09.06-.15.06h-1.66c-.06,0-.11-.02-.15-.06Z"/>
      <path class="cls-3" d="M145.94,108.05c-.24-.24-.36-.55-.36-.92s.12-.68.36-.92c.24-.24.55-.36.92-.36s.68.12.92.36c.24.24.36.55.36.92s-.12.68-.36.92c-.24.24-.55.36-.92.36s-.68-.12-.92-.36ZM145.84,118.8s-.06-.09-.06-.15v-8.78c0-.06.02-.11.06-.15.04-.04.09-.06.15-.06h1.66c.06,0,.11.02.15.06.04.04.06.09.06.15v8.78c0,.06-.02.11-.06.15-.04.04-.09.06-.15.06h-1.66c-.06,0-.11-.02-.15-.06Z"/>
      <path class="cls-3" d="M150.32,118.8s-.06-.09-.06-.15v-12.17c0-.06.02-.11.06-.15s.09-.06.15-.06h1.66c.06,0,.11.02.15.06s.06.09.06.15v6.5s.01.06.04.07c.02.01.05,0,.07-.04l2.92-3.22c.08-.08.17-.13.27-.13h1.91c.12,0,.18.04.18.13,0,.04-.02.08-.05.14l-2.29,2.74s-.04.08-.02.13l2.7,5.81s.04.08.04.11c0,.1-.07.14-.2.14h-1.75c-.12,0-.2-.05-.25-.16l-1.96-4.57s-.03-.04-.06-.04c-.03,0-.05,0-.06.03l-1.44,1.66s-.04.09-.04.13v2.75c0,.06-.02.11-.06.15-.04.04-.09.06-.15.06h-1.66c-.06,0-.11-.02-.15-.06Z"/>
      <path class="cls-3" d="M164.86,109.92c.58.26,1.02.63,1.33,1.09.31.46.47.99.47,1.58v6.07c0,.06-.02.11-.06.15-.04.04-.09.06-.15.06h-1.66c-.06,0-.11-.02-.15-.06-.04-.04-.06-.09-.06-.15v-.58s-.01-.06-.04-.06c-.02,0-.05,0-.07.03-.59.65-1.44.97-2.56.97-.9,0-1.64-.23-2.22-.68s-.87-1.13-.87-2.03.33-1.67.98-2.19c.65-.52,1.58-.78,2.76-.78h1.93c.06,0,.09-.03.09-.09v-.43c0-.47-.14-.83-.41-1.09-.28-.26-.69-.39-1.24-.39-.46,0-.83.08-1.11.24-.28.16-.46.39-.53.67-.04.14-.12.2-.25.18l-1.75-.22c-.06-.01-.11-.03-.15-.06-.04-.03-.06-.07-.04-.12.1-.73.49-1.33,1.18-1.8.69-.47,1.56-.7,2.6-.7.76,0,1.42.13,2,.4ZM163.94,116.88c.42-.31.63-.71.63-1.19v-.85c0-.06-.03-.09-.09-.09h-1.51c-.64,0-1.14.12-1.5.36-.37.24-.55.58-.55,1.03,0,.38.14.68.42.89.28.21.64.32,1.09.32.59,0,1.09-.16,1.51-.47Z"/>
    </g>
    <rect class="cls-3" x="16.69" y="15.87" width="176.77" height="1.42"/>
    <rect class="cls-3" x="16.69" y="132.84" width="176.77" height="1.42"/>
    <g>
      <g>
        <path class="cls-3" d="M138.72,73.16l-3.15-7.28c-.04-.08-.1-.12-.17-.12h-1.21c-.1,0-.14.05-.14.14v7.14c0,.13-.04.24-.11.32s-.18.11-.32.11h-4.53c-.13,0-.24-.04-.32-.11-.08-.08-.12-.18-.12-.32v-19.21c0-.13.04-.24.12-.32s.18-.11.32-.11h8.69c1.3,0,2.44.27,3.43.8.98.54,1.75,1.29,2.29,2.25.54.97.82,2.08.82,3.34s-.31,2.37-.93,3.31c-.62.95-1.48,1.64-2.57,2.08-.1.04-.12.11-.09.2l3.64,7.57c.04.12.06.18.06.2,0,.1-.04.17-.12.23s-.17.09-.29.09h-4.82c-.25,0-.41-.1-.49-.32ZM134.04,58.16v3.36c0,.1.05.14.14.14h2.7c.61,0,1.11-.17,1.49-.5.38-.33.57-.77.57-1.31s-.19-1-.57-1.33c-.38-.33-.88-.5-1.49-.5h-2.7c-.1,0-.14.05-.14.14Z"/>
        <path class="cls-3" d="M154.15,73.36c-.08-.08-.12-.18-.12-.32v-19.21c0-.13.04-.24.12-.32s.18-.11.32-.11h4.53c.13,0,.24.04.32.11.08.08.11.18.11.32v19.21c0,.13-.04.24-.11.32s-.18.11-.32.11h-4.53c-.13,0-.24-.04-.32-.11Z"/>
      </g>
      <path class="cls-3" d="M65.15,57.9c-.08.08-.18.12-.32.12h-8.58c-.1,0-.14.05-.14.14v2.7c0,.1.05.14.14.14h5.31c.13,0,.24.04.32.11.08.08.12.18.12.32v3.73c0,.13-.04.24-.12.32-.08.08-.18.12-.32.12h-5.31c-.1,0-.14.05-.14.14v2.98c0,.1.05.14.14.14h8.58c.13,0,.24.04.32.11.08.08.12.18.12.32v3.76c0,.13-.04.24-.12.32s-.18.11-.32.11h-13.68c-.13,0-.24-.04-.32-.11-.08-.08-.12-.18-.12-.32v-19.21c0-.13.04-.24.12-.32s.18-.11.32-.11h13.68c.13,0,.24.04.32.11.08.08.12.18.12.32v3.76c0,.13-.04.24-.12.32Z"/>
      <g>
        <g>
          <path class="cls-1" d="M97.16,63.34l21.63,6.04v22.66c0,.37-.11.66-.32.88-.21.21-.51.32-.88.32h-12.61c-.37,0-.66-.11-.88-.32-.21-.21-.32-.51-.32-.88v-19.56c0-.27-.13-.4-.4-.4h-12.45c-.27,0-.4.13-.4.4v19.56c0,.37-.11.66-.32.88-.21.21-.51.32-.88.32h-12.61c-.37,0-.67-.11-.88-.32-.21-.21-.32-.51-.32-.88v-22.66l21.63-6.04Z"/>
          <path class="cls-3" d="M117.6,93.73h-12.61c-.5,0-.92-.16-1.23-.46-.31-.31-.47-.72-.47-1.23v-19.46h-12.25s0,19.46,0,19.46c0,.51-.16.92-.47,1.23-.31.31-.73.47-1.23.47h-12.61c-.51,0-.92-.16-1.23-.46-.31-.31-.47-.73-.47-1.23v-23.04l22.13-6.17.13.04,22,6.14v23.04c0,.51-.16.92-.46,1.23-.31.31-.73.47-1.23.47ZM90.93,71.57h12.45c.55,0,.9.35.9.9v19.56c0,.35.13.48.17.53.12.12.29.17.52.17h12.61c.24,0,.41-.06.53-.17.11-.11.17-.29.17-.52v-22.28l-21.13-5.9-21.13,5.9v22.28c0,.24.06.41.17.53.12.11.29.17.52.17h12.61c.23,0,.41-.06.53-.17.11-.12.17-.29.17-.52v-19.56c0-.55.35-.9.9-.9Z"/>
        </g>
        <g>
          <path class="cls-3" d="M118.47,36.8c-.21-.21-.51-.32-.88-.32h-12.61c-.37,0-.67.11-.88.32-.21.21-.32.51-.32.88v20.28c0,.27-.13.4-.4.4h-12.45c-.27,0-.4-.13-.4-.4v-20.28c0-.37-.11-.67-.32-.88-.21-.21-.51-.32-.88-.32h-12.61c-.37,0-.67.11-.88.32-.21.21-.32.51-.32.88v31.7l21.63-6.04,21.63,6.04v-31.7c0-.37-.11-.67-.32-.88Z"/>
          <path class="cls-3" d="M119.29,70.03l-22.13-6.17-22.13,6.17v-32.35c0-.51.16-.92.46-1.23.31-.31.72-.47,1.23-.47h12.61c.51,0,.92.16,1.23.47.31.31.47.72.47,1.23v20.17h12.25s0-20.17,0-20.17c0-.51.16-.93.47-1.23.31-.31.72-.46,1.23-.46h12.61c.51,0,.92.16,1.23.46h0c.31.31.47.72.47,1.23v32.35ZM76.72,36.98c-.24,0-.41.06-.53.17s-.17.29-.17.53v31.04l21.13-5.9.13.04,21,5.86v-31.04c0-.24-.06-.41-.17-.52h0c-.12-.12-.29-.17-.52-.17h-12.61c-.24,0-.41.06-.52.17-.04.04-.17.17-.17.53v20.28c0,.54-.36.9-.9.9h-12.45c-.55,0-.9-.35-.9-.9v-20.28c0-.24-.06-.41-.17-.52s-.29-.17-.52-.17h-12.61Z"/>
        </g>
      </g>
    </g>
  </g>
</svg>